<svg width="40" height="40" fill="none" xmlns="http://www.w3.org/2000/svg"><circle cx="20" cy="20" r="20" id="instagram-bg"/><g id="instagram-logo"><path d="m26.7,13.3c-0.9,-0.9 -2,-1.3 -3.4,-1.3l-6.6,0c-2.8,0 -4.7,1.9 -4.7,4.7l0,6.6c0,1.4 0.4,2.6 1.4,3.4c0.9,0.9 2,1.3 3.3,1.3l6.6,0c1.4,0 2.6,-0.4 3.4,-1.3c0.8,-0.9 1.3,-2 1.3,-3.4l0,-6.6c0,-1.4 -0.4,-2.6 -1.3,-3.4zm-6.7,10.8c-2.2,0 -4.1,-1.8 -4.1,-4.1s1.9,-4.1 4.1,-4.1c2.2,0 4.1,1.8 4.1,4.1s-1.9,4.1 -4.1,4.1zm4.6,-7.4c-0.7,0 -1.3,-0.5 -1.3,-1.3s0.5,-1.3 1.3,-1.3c0.7,0 1.3,0.6 1.3,1.3c0,0.7 -0.6,1.3 -1.3,1.3z" fill="#444"/><path d="m20,22c1.1046,0 2,-0.8954 2,-2s-0.8954,-2 -2,-2s-2,0.8954 -2,2s0.8954,2 2,2z" fill="#444"/></g>
 </svg>
