<svg width="136" height="165" fill="none" xmlns="http://www.w3.org/2000/svg"><g clip-path="url(#a)"><path d="M93.1329 39.2671c8.1211 0 14.9451-5.542 16.9001-13.049l5.467.814c.107.016.215.024.32.024 1.051 0 1.971-.77 2.131-1.84.176-1.178-.639-2.276-1.816-2.451l-5.541-.825c.002-.046.004-.091.004-.138 0-.182-.006-.362-.014-.542 0 0-.451-6.518-1.074-9.237-.621-2.719-2.535-3.296-2.535-3.296-9.7701-2.212-19.7721-2.438-22.3751-2.438-2.603 0-3.158 1.332-3.158 1.332l-3.15 4.996-.01-.003c-.076.122-.1459.245-.2189.368l-.0271.043c-1.502 2.58-2.367 5.576-2.367 8.777-.001 9.646 7.819 17.465 17.464 17.465ZM131.535 78.576v-.002l-26.742-2.168-9.2461-21.112s-.461-2.774-6.008-8.476c-5.549-5.702-16.799-3.39-16.799-3.39s-23.886 4.469-31.745 6.318c-7.86 1.85-8.168 9.863-8.168 9.863l-.632 4.519-15.178-2.941a2.9852 2.9852 0 0 0-.568-.055c-1.407 0-2.671 1-2.948 2.429l-7.411 38.242c-.314 1.62.754 3.202 2.375 3.516l51.196 9.923c.115.022.23.024.346.033h.002c-.728.104-1.291-.035-1.291-.035l-9.4-1.849-3.082 17.105-23.56 20.363c-1.701 1.361-2.792 3.453-2.792 5.801 0 4.104 3.326 7.43 7.429 7.43 2.035 0 3.878-.818 5.22-2.145 0 0 27.725-22.05 29.575-23.591 1.85-1.54 2.773-3.853 2.773-3.853s4.5411-13.948 5.7791-16.874c.8479-2.004 4.9319-1.079 4.9319-1.079l22.885 8.631 7.6151 29.062c.082.63.242 1.234.473 1.804h.002c1.098 2.728 3.77 4.654 6.889 4.654 4.104 0 7.43-3.327 7.43-7.43 0-.599-.072-1.179-.207-1.736-.842-4.965-4.604-27.046-5.561-31.826-1.078-5.394-4.621-6.934-4.621-6.934s-21.268-11.558-22.6541-12.329c-1.387-.77-1.078-2.774-1.078-2.774l3.93-14.331 2.773 5.856s1.6191 3.274 4.084 3.391l33.3571.82c4.104 0 7.43-3.326 7.43-7.431-.001-3.889-2.993-7.079-6.804-7.399ZM60.1039 63.307l-1.789 5.88 9.898 1.919-20.214-3.917.548-2.496 11.557-1.386Zm-2.249 45.473-45.304-8.781 6.27-32.353 12.542 2.431-1.618 11.567-.64 4.406c-.005.026-.008.056-.012.082l-.018.127h.002c-.04.312-.063.629-.063.951 0 4.104 3.327 7.429 7.43 7.429s7.429-3.325 7.429-7.429c0-.318-.021-.63-.061-.937l2.901-13.223 17.413 3.374-6.271 32.356ZM25.05 17.5081h38.027c1.1 0 2.0001-.896 2.0001-1.99 0-1.094-.9001-1.99-2.0001-1.99H25.05c-1.1 0-2 .896-2 1.99 0 1.094.9 1.99 2 1.99ZM38.0798 23.5249c-1.1 0-2 .896-2 1.99 0 1.094.9 1.99 2 1.99h22.959c1.1 0 2-.896 2-1.99 0-1.095-.9-1.99-2-1.99h-22.959Z" fill="#fff"/><path d="M87.0981 33.2319c8.121 0 14.9449-5.542 16.8999-13.049l5.467.814c.107.016.215.024.32.024 1.051 0 1.971-.77 2.131-1.84.176-1.178-.639-2.276-1.816-2.451l-5.541-.825c.002-.046.004-.091.004-.138 0-.182-.006-.362-.014-.542 0 0-.451-6.518-1.074-9.237-.621-2.719-2.535-3.296-2.535-3.296C91.1701.48 81.1681.254 78.5641.254c-2.604 0-3.158 1.332-3.158 1.332l-3.15 4.996-.01-.003c-.076.121-.146.245-.219.368l-.027.043c-1.502 2.58-2.367 5.576-2.367 8.777 0 9.646 7.82 17.465 17.465 17.465ZM125.5 72.5411v-.002l-26.7421-2.168-9.246-21.112s-.461-2.774-6.008-8.476c-5.549-5.702-16.799-3.39-16.799-3.39s-23.886 4.469-31.745 6.317c-7.86 1.85-8.168 9.863-8.168 9.863l-3.082 22.036-.64 4.406c-.005.026-.008.056-.012.082l-.018.127h.002c-.04.312-.063.629-.063.951 0 4.104 3.327 7.429 7.43 7.429s7.429-3.325 7.429-7.429c0-.318-.021-.63-.061-.937l4.734-21.581 11.557-1.386-1.789 5.88 9.898 1.919c1.62.313 2.688 1.896 2.375 3.517l-7.412 38.2429c-.277 1.43-1.541 2.43-2.948 2.43-.072 0-.146-.016-.22-.021-.728.104-1.291-.035-1.291-.035l-9.4-1.849-3.082 17.105-23.56 20.363c-1.701 1.361-2.792 3.453-2.792 5.801 0 4.104 3.326 7.43 7.429 7.43 2.035 0 3.878-.818 5.22-2.145 0 0 27.725-22.05 29.575-23.591 1.85-1.54 2.773-3.853 2.773-3.853s4.541-13.948 5.779-16.874c.848-2.004 4.932-1.079 4.932-1.079l22.885 8.631 7.6151 29.062c.082.63.242 1.234.473 1.804h.002c1.098 2.728 3.77 4.654 6.889 4.654 4.104 0 7.43-3.327 7.43-7.43 0-.599-.072-1.179-.207-1.736-.842-4.965-4.604-27.046-5.561-31.826-1.078-5.394-4.621-6.934-4.621-6.934S83.1929 95.1821 81.8069 94.4101c-1.387-.77-1.078-2.774-1.078-2.774l3.93-14.331 2.773 5.856s1.619 3.274 4.084 3.391l33.3571.82c4.104 0 7.43-3.326 7.43-7.431 0-3.89-2.992-7.081-6.803-7.4Z" fill="#3A3A3A"/><path d="M53.9708 109.644h.002c.073.006.147.021.22.021 1.407 0 2.671-1 2.948-2.43l7.412-38.243c.313-1.621-.755-3.203-2.375-3.517l-20.214-3.917-1.286 5.862 17.413 3.374-6.271 32.354-45.304-8.779 6.27-32.353 12.542 2.431.832-5.95-15.178-2.942a2.9852 2.9852 0 0 0-.568-.055c-1.407 0-2.671 1-2.948 2.429L.0548 96.173c-.314 1.62.754 3.202 2.375 3.516l51.196 9.923c.114.022.229.023.345.032Z" fill="#F0C42E"/><path d="M59.0419 9.482c0 1.0949-.9 1.9899-2 1.9899h-38.027c-1.1 0-2-.896-2-1.99 0-1.094.9-1.99 2-1.99h38.027c1.1.001 2 .896 2 1.99ZM57.0039 19.48c0 1.094-.9 1.99-2 1.99h-22.96c-1.1 0-2-.896-2-1.99 0-1.095.9-1.99 2-1.99h22.959c1.101 0 2.001.896 2.001 1.99Z" fill="#F0C52E"/></g><defs><clipPath id="a"><path fill="#fff" transform="translate(0 .5)" d="M0 0h136v164H0z"/></clipPath></defs></svg>