<svg width="171" height="195" fill="none" xmlns="http://www.w3.org/2000/svg"><g clip-path="url(#a)"><path d="M77.6941 174.636c-.104-.13-10.495-12.996-12.609-15.76-1.321-1.727-3.307-2.678-5.593-2.678-2.56 0-4.836 1.17-5.512 1.553l-5.486 2.743c-1.773-.479-5.587-1.95-9.28-6.268-3.284-3.839-3.261-8.986-3.086-11.099l5.893-5.893c3.093-2.717 2.452-6.516 1.246-8.431l-.219-.311s-12.862-16.221-14.666-18.498c-.989-1.249-2.475-1.938-4.184-1.938-2.849 0-5.879 1.975-6.756 2.592-10.885 7.749-11.586 14.562-11.631 15.313l-.024.414.074.409c6.412 35.726 26.026 51.137 35.453 58.543 1.148.901 2.14 1.681 2.854 2.306 6.563 5.747 13.762 6.367 16.553 6.367 2.375-.001 4.48-.405 6.089-1.171 4.366-2.078 9.425-8.01 10.872-9.778 2.501-3.059 1.283-6.599.168-8.208l-.156-.207Zm-13.893 11.873c-.499.237-1.57.491-3.081.491-1.56 0-7.032-.334-11.944-4.632-.854-.747-1.913-1.579-3.139-2.543-8.694-6.83-26.729-21.001-32.78-53.684.289-.979 1.829-4.938 8.62-9.771.652-.453 1.508-.904 2.119-1.142 2.831 3.572 11.41 14.392 13.502 17.03l-7.528 7.527-.203 1.055c-.081.422-1.911 10.409 4.527 17.937 6.286 7.349 13.25 8.667 14.583 8.856l1.082.154 7.644-3.823.218-.118c.281-.167 1.335-.648 2.071-.648.036 0 .065.001.088.003 2.149 2.8 11.105 13.897 12.5 15.624a.03.03 0 0 0 .004.01c-2.562 3.095-6.173 6.669-8.283 7.674ZM137.85 65.824c5.512-5.177 7.156-11.975 5.033-20.783a2.5016 2.5016 0 0 0-1.689-1.802c-.842-.262-1.76-.06-2.414.53l-8.221 7.403c-1.438-.795-3.676-2.451-4.465-5.33l6.803-6.729c.947-.938.992-2.453.104-3.446l-.186-.207a2.4726 2.4726 0 0 0-.678-.533c-.16-.086-3.988-2.116-8.824-2.116-4.709 0-8.859 1.921-12.002 5.556-6 6.938-4.557 15.042-3.543 18.471l-3.488 3.488-10.2838-9.236 4.717-3.266L78.6712 34.1l-10.601 10.603 13.724 20.041 3.266-4.717 9.237 10.282-3.295 3.294c-1.5-.478-3.883-1.052-6.663-1.052-5.429 0-10.236 2.174-13.962 6.359-.271.329-6.599 8.165-2.751 18.621.284.773.931 1.356 1.729 1.56.796.203 1.645.001 2.264-.541l8.295-7.259c1.323.567 3.622 2.08 4.659 5.925l-7.384 7.516c-.634.645-.87 1.582-.617 2.45.253.868.954 1.532 1.835 1.737.11.025 2.724.623 6.175.623 6.84 0 12.112-2.271 15.245-6.567 3.3628-4.613 4.0938-9.433 3.9938-13.088l16.217 16.217.172.158c1.521 1.26 4.318 2.725 7.451 2.725 2.227 0 4.625-.741 6.852-2.824l5.518-5.516.102-.104c5.012-5.358 2.258-11.698.1-14.302l-16.945-16.959c1.027.106 2.148.181 3.322.181 4.888-.001 8.669-1.225 11.24-3.639ZM84.5512 51.978l-2.734 3.949-7.276-10.625 4.731-4.732 10.625 7.276-3.95 2.734 14.7918 13.286-4.0938 4.093 1.191-1.192-13.285-14.789Zm13.562 33.524c.109.313 2.6148 7.746-2.328 14.527-2.77 3.798-7.748 4.526-11.4 4.512l4.703-4.787c.566-.576.82-1.391.68-2.187-1.791-10.147-9.745-11.484-10.083-11.536a2.513 2.513 0 0 0-2.027.589l-6.204 5.428c-.522-5.56 2.413-9.489 2.759-9.932 2.721-3.03 6.127-4.566 10.125-4.566 3.515 0 6.231 1.211 6.249 1.22.953.439 2.076.241 2.818-.501l18.9998-19c.725-.724.934-1.816.527-2.756-.035-.083-3.494-8.34 2.158-14.876 2.195-2.539 4.961-3.826 8.221-3.826 1.23 0 2.383.183 3.365.421l-5.047 4.993a2.4999 2.4999 0 0 0-.725 2.08c1.012 8.3 8.969 11.077 9.307 11.191.855.288 1.801.094 2.473-.511l6.049-5.447c.373 4.864-1.02 8.554-4.309 11.642-2.008 1.887-5.359 2.283-7.818 2.283-3.689 0-6.951-.865-6.982-.873-.865-.236-1.795.014-2.43.653L98.6942 82.91c-.671.677-.893 1.69-.581 2.592Zm5.5018 1.842v.008-.008Zm-.181-1.121c.01.052.02.104.029.158-.01-.052-.02-.107-.029-.158Zm33.091 10.856-5.479 5.476c-3.248 2.98-6.9.432-7.576-.087l-18.643-18.645 14.941-15.075-2.035 2.053 18.707 18.706c.46.592 3.097 4.287.085 7.572Zm-15.209-28.054Zm-.843-.143c.02.004.045.008.066.012a4.1907 4.1907 0 0 1-.066-.012Z" fill="#fff"/><path d="M104.162 6.002c-36.4078 0-65.9218 29.514-65.9218 65.922 0 33.517 25.02 61.172 57.398 65.354v26.224s57.4388-21.243 71.9688-73.622c.078-.283.139-.538.211-.812.113-.424.225-.85.33-1.277.064-.263.119-.514.178-.769 1.137-4.851 1.758-9.901 1.758-15.098 0-36.408-29.514-65.922-65.922-65.922Zm57.348 79.422-.006.027-.006.027-.029.13c-.039.17-.076.339-.119.515-.094.376-.191.7509-.301 1.161l-.104.4c-.025.108-.053.216-.082.324-5.564 20.056-18.52 37.7-38.506 52.442-7.373 5.438-14.408 9.464-19.719 12.175V131.123l-6.1038-.788c-29.243-3.777-51.295-28.889-51.295-58.412 0-32.4901 26.432-58.922 58.9218-58.922 32.488 0 58.922 26.4319 58.922 58.922.001 4.509-.528 9.051-1.573 13.501Z" fill="#fff"/><path d="M54.583 187.998c-2.791 0-9.9891-.62-16.5541-6.364-.714-.625-1.706-1.404-2.854-2.306-9.4259-7.406-29.041-22.817-35.453-58.543l-.074-.409.024-.414c.044-.752.746-7.564 11.631-15.313.877-.617 3.907-2.592 6.756-2.592 1.708 0 3.194.688 4.184 1.938 1.804 2.277 14.6661 18.498 14.6661 18.498l.2189.311c1.2061 1.915 1.847 5.714-1.2459 8.431l-5.8931 5.893c-.175 2.112-.1979 7.26 3.0861 11.099 3.692 4.317 7.507 5.789 9.2799 6.268l5.4861-2.743c.6759-.383 2.9519-1.553 5.512-1.553 2.286 0 4.272.951 5.5929 2.678 2.114 2.764 12.504 15.63 12.609 15.76l.155.207c1.115 1.609 2.333 5.149-.168 8.208-1.447 1.769-6.505 7.7-10.872 9.778-1.6069.763-3.7119 1.167-6.0869 1.168ZM6.72 120.14c6.0509 32.683 24.086 46.854 32.78 53.684 1.226.964 2.285 1.796 3.139 2.543 4.9119 4.298 10.3839 4.632 11.944 4.632 1.511 0 2.582-.254 3.081-.491 2.11-1.005 5.7219-4.579 8.2839-7.674-.001-.003-.003-.006-.004-.01-1.394-1.727-10.351-12.824-12.4999-15.624a1.0654 1.0654 0 0 0-.0881-.003c-.736 0-1.79.481-2.0709.648l-.218.118-7.644 3.823-1.082-.154c-1.3331-.189-8.2971-1.508-14.5831-8.856-6.438-7.527-4.6079-17.515-4.527-17.937l.203-1.055 7.528-7.527c-2.092-2.639-10.671-13.458-13.502-17.03-.611.237-1.467.688-2.119 1.142-6.793 4.833-8.333 8.792-8.621 9.771Z" fill="#3A3A3A"/><path d="M78.443 103.54c-3.452 0-6.065-.598-6.175-.623a2.5 2.5 0 0 1-1.835-1.737c-.252-.868-.017-1.8059.617-2.4499l7.384-7.516c-1.037-3.845-3.336-5.357-4.659-5.925l-8.295 7.259a2.503 2.503 0 0 1-2.264.541 2.5018 2.5018 0 0 1-1.729-1.559c-3.848-10.457 2.48-18.293 2.751-18.622 3.726-4.185 8.533-6.359 13.962-6.359 2.78 0 5.162.574 6.663 1.052l16.766-16.765c-1.013-3.43-2.457-11.534 3.543-18.471 3.143-3.634 7.293-5.556 12.002-5.556 4.837 0 8.664 2.029 8.825 2.116.255.137.484.317.677.533l.186.207c.89.993.845 2.508-.104 3.446l-6.803 6.729c.789 2.879 3.028 4.535 4.465 5.33l8.222-7.403a2.496 2.496 0 0 1 2.413-.53c.842.261 1.483.945 1.69 1.802 2.123 8.809.478 15.606-5.033 20.783-2.57 2.414-6.353 3.638-11.242 3.638-2.789 0-5.324-.407-6.839-.714l-16.504 16.653c.729 3.181 1.631 10.62-3.439 17.574-3.133 4.2959-8.405 6.5669-15.245 6.5669Zm-.196-5.0009c3.651.015 8.631-.714 11.4-4.512 4.944-6.781 2.438-14.214 2.329-14.527-.313-.902-.091-1.915.582-2.593l18.5-18.667c.634-.639 1.564-.889 2.43-.653.03.008 3.293.873 6.982.873 2.458 0 5.811-.396 7.818-2.283 3.288-3.088 4.681-6.778 4.309-11.642l-6.049 5.447c-.672.604-1.617.799-2.473.511-.338-.114-8.295-2.891-9.307-11.191a2.496 2.496 0 0 1 .724-2.08l5.047-4.993c-.981-.238-2.135-.421-3.365-.421-3.259 0-6.024 1.288-8.221 3.826-5.651 6.536-2.192 14.793-2.157 14.876.405.94.196 2.033-.528 2.756l-19 19c-.741.742-1.865.94-2.817.501-.018-.008-2.735-1.22-6.25-1.22-3.998 0-7.404 1.536-10.125 4.566-.347.442-3.282 4.372-2.759 9.932l6.204-5.428a2.506 2.506 0 0 1 2.027-.589c.337.052 8.291 1.389 10.082 11.536.141.796-.112 1.61-.679 2.187l-4.704 4.788Z" fill="#F0C42E"/><path d="m78.9209 54.0251 9.237 10.282 3.54-3.541-13.285-14.79-2.735 3.949-7.276-10.624 4.732-4.732 10.625 7.276-3.95 2.734 14.791 13.286 3.541-3.541-10.283-9.236 4.717-3.266-20.042-13.724-10.601 10.603 13.724 20.041 3.265-4.717ZM117.147 63.2801c-1.413-.146-2.64-.356-3.517-.534l-2.034 2.053 18.706 18.706c.46.592 3.097 4.287.084 7.572l-5.478 5.476c-3.248 2.98-6.901.432-7.576-.087L98.69 77.8211l-1.563 1.578c.245 1.07.505 2.63.555 4.485l16.217 16.2179.173.158c1.521 1.26 4.318 2.725 7.45 2.725 2.228 0 4.625-.741 6.853-2.824l5.518-5.5159.102-.103c5.012-5.358 2.257-11.699.099-14.303l-16.947-16.959Z" fill="#3A3A3A"/><path d="M98.0231 7c32.4889 0 58.9219 26.432 58.9219 58.922 0 4.508-.529 9.05-1.573 13.5l-.006.027-.007.027-.029.13c-.038.17-.076.339-.118.515-.094.376-.191.751-.302 1.161l-.103.4c-.026.108-.054.216-.083.324-5.564 20.056-18.52 37.7-38.506 52.442-7.373 5.438-14.408 9.464-19.7189 12.175V125.121l-6.1041-.788c-29.243-3.777-51.2939-28.889-51.2939-58.412C39.1021 33.432 65.5341 7 98.0231 7Zm0-7c-36.407 0-65.921 29.514-65.921 65.922 0 33.517 25.02 61.172 57.3979 65.354V157.5s57.439-21.243 71.97-73.622c.078-.283.138-.538.21-.812.114-.424.225-.85.331-1.277.063-.263.119-.514.177-.769 1.138-4.851 1.758-9.901 1.758-15.098C163.945 29.514 134.432 0 98.0231 0Z" fill="#3A3A3A"/></g><defs><clipPath id="a"><path fill="#fff" d="M0 0h171v195H0z"/></clipPath></defs></svg>