<svg width="160" height="160" fill="none" xmlns="http://www.w3.org/2000/svg"><path d="M97.349 37.49c0-.736-.578-1.49-1.311-1.49H53.053c-.733 0-1.381.754-1.381 1.49v3.522h45.676l.001-3.522ZM98.202 117.809h-9.597v-10.383h-6.958v2.507H62.774c-.537-1.254-1.757-2.148-3.181-2.148H47.559c-1.917-.001-3.559 1.602-3.559 3.526v3.018c0 1.924 1.642 3.48 3.559 3.48h12.035c1.511 0 2.792-.896 3.269-2.326h18.785v2.326H72.13c-.533 0-1.01.437-1.01.972v3.172c0 .535.478 1.048 1.01 1.048h26.072c.533 0 .93-.513.93-1.048v-3.173c0-.535-.397-.971-.93-.971ZM104.666 48.39c-.861-2.937-3.567-5.05-6.771-5.05H51.148C47.25 43.34 44 46.449 44 50.361v46.9c0 3.912 3.25 7.121 7.148 7.121h46.747c3.898 0 7.126-3.209 7.126-7.121V86.915c6.066-4.204 10.001-11.211 10.001-19.164-.001-8.079-4.132-15.181-10.356-19.361ZM56.238 98.151c-3.259 0-5.901-2.65-5.901-5.921 0-3.27 2.642-5.922 5.901-5.922s5.902 2.652 5.902 5.922c0 3.271-2.643 5.921-5.902 5.921Zm5.961-32.605c0 .786-.635 1.422-1.418 1.422h-8.94c-.783 0-1.418-.637-1.418-1.422v-14.16c0-.786.635-1.423 1.418-1.423h8.939c.783 0 1.418.637 1.418 1.423l.001 14.16Zm29.563 22.312c-11.076 0-20.057-9.01-20.057-20.123 0-11.113 8.98-20.124 20.057-20.124 11.077 0 20.058 9.01 20.058 20.124 0 11.114-8.981 20.123-20.058 20.123Z" fill="#363636"/><path d="M91.762 79.964c6.7312 0 12.188-5.4751 12.188-12.229 0-6.7539-5.4568-12.229-12.188-12.229s-12.188 5.4751-12.188 12.229c0 6.7539 5.4568 12.229 12.188 12.229ZM75.562 69.171c.7925 0 1.435-.6425 1.435-1.435 0-.7925-.6425-1.435-1.435-1.435-.7925 0-1.435.6425-1.435 1.435 0 .7925.6425 1.435 1.435 1.435ZM107.963 69.171c.793 0 1.435-.6425 1.435-1.435 0-.7925-.642-1.435-1.435-1.435s-1.435.6425-1.435 1.435c0 .7925.642 1.435 1.435 1.435ZM83.109 55.429c.7925 0 1.435-.6425 1.435-1.435 0-.7925-.6425-1.435-1.435-1.435-.7925 0-1.435.6425-1.435 1.435 0 .7925.6425 1.435 1.435 1.435ZM100.415 82.912c.79 0 1.43-.6429 1.43-1.436 0-.7931-.64-1.436-1.43-1.436-.7898 0-1.43.6429-1.43 1.436 0 .7931.6402 1.436 1.43 1.436ZM99.697 55c.793 0 1.435-.6425 1.435-1.435 0-.7925-.642-1.435-1.435-1.435-.7925 0-1.435.6425-1.435 1.435 0 .7925.6425 1.435 1.435 1.435ZM83.828 83.341c.7925 0 1.435-.6425 1.435-1.435 0-.7925-.6425-1.435-1.435-1.435-.7925 0-1.435.6425-1.435 1.435 0 .7925.6425 1.435 1.435 1.435Z" fill="#363636"/></svg>